<svg width="119.5" height="40" viewBox="0 0 119.6 40" fill="none" xmlns="http://www.w3.org/2000/svg"><defs><clipPath id="clippath"><path fill="none" d="M-76.4 0h196v40h-196z"/></clipPath><style>.st1{fill:#fff}</style></defs><g clip-path="url(#clippath)"><rect width="119.5" height="40" fill="#2d0046" rx="4" ry="4"/><path d="M98.3 33V7.1h2.7l3.4 19.7 3.3-19.7h2.7V33h-2.2V16.4L105.5 33h-2l-2.8-16.8V33h-2.2ZM87.1 33l3.5-26h2.6l3.4 26h-2.3l-.6-5.2h-3.8l-.6 5.2H87Zm3.1-7.3h3.3l-1.7-13.8-1.6 13.8ZM78.4 33V7.1h2.3v23.8h5.4V33h-7.6ZM71.6 33.4c-3.3 0-4.4-2.5-4.1-8.4h2.2c-.2 4.7.2 6.2 2 6.2s2.1-.9 2.1-3v-.4c0-3.4-1.4-5.4-3-7.4-1.6-2.1-3.2-4.6-3.2-8v-.9c0-3.1 1.7-4.8 4.3-4.8s4.4 2.4 4.1 7.7h-2.2c.2-4.3-.5-5.5-2-5.5s-2 .9-2 2.9v.3c0 3 1.4 4.9 2.8 6.7 1.7 2.3 3.4 4.7 3.4 8.7v1c0 3.3-1.8 4.9-4.4 4.9ZM52.5 33V7.1h3.9c2.8 0 4.6 1.6 4.6 4.8v16.2c0 3.2-1.9 4.8-4.6 4.8h-3.9Zm2.2-2.1h1.6c1.6 0 2.4-.9 2.4-3V12.2c0-2.1-.8-3-2.4-3h-1.6v21.6ZM40.9 33V7.1h2.2l4.3 17.7V7.1h2.2V33h-2.3l-4.2-17.2V33h-2.2ZM29.8 33l3.5-26h2.6l3.4 26H37l-.6-5.2h-3.8L32 33h-2.3Zm3.1-7.3h3.3l-1.7-13.8-1.6 13.8ZM20.1 33V7.1h3.8c2.8 0 4.6 1.6 4.6 4.8v5.8c0 2.3-.9 3.8-2.5 4.4l2.9 10.8h-2.4l-2.7-10.4h-1.6v10.4h-2.3Zm2.3-12.5H24c1.6 0 2.4-.9 2.4-3v-5.3c0-2.1-.8-3-2.4-3h-1.6v11.2ZM13.5 33.4c-2.4 0-4.3-1.7-4.3-4.9V11.7c0-3.3 1.7-5 4.4-5S18 9 17.7 15h-2.2c.1-5-.5-6.1-2-6.1s-2.1.8-2.1 3v16.3c0 2.1.7 3.1 1.9 3.1s2.1-.8 2.1-3.7v-5.5h-1.8V20h4v8.3c0 3.9-2.2 5.2-4.3 5.2Z" class="st1"/></g></svg>